<svg width="30" height="30" viewBox="0 0 30 30" fill="none" xmlns="http://www.w3.org/2000/svg">
<path d="M10.239 3.94493C9.13094 3.68502 7.97777 3.68502 6.86972 3.94494C5.41849 4.28535 4.28535 5.41849 3.94494 6.86972C3.68502 7.97777 3.68502 9.13094 3.94494 10.239C4.28535 11.6902 5.41849 12.8234 6.86972 13.1638C7.97777 13.4237 9.13094 13.4237 10.239 13.1638C11.6902 12.8234 12.8234 11.6902 13.1638 10.239C13.4237 9.13094 13.4237 7.97777 13.1638 6.86972C12.8234 5.41849 11.6902 4.28535 10.239 3.94493Z" fill="#5E6062"/>
<path d="M10.239 16.8362C9.13094 16.5763 7.97777 16.5763 6.86972 16.8362C5.41849 17.1766 4.28535 18.3098 3.94494 19.761C3.68502 20.8691 3.68502 22.0222 3.94494 23.1303C4.28535 24.5815 5.41849 25.7147 6.86972 26.0551C7.97777 26.315 9.13094 26.315 10.239 26.0551C11.6902 25.7147 12.8234 24.5815 13.1638 23.1303C13.4237 22.0222 13.4237 20.8691 13.1638 19.761C12.8234 18.3098 11.6902 17.1766 10.239 16.8362Z" fill="#5E6062"/>
<path d="M23.1303 3.94493C22.0222 3.68502 20.8691 3.68502 19.761 3.94494C18.3098 4.28535 17.1766 5.41849 16.8362 6.86972C16.5763 7.97777 16.5763 9.13094 16.8362 10.239C17.1766 11.6902 18.3098 12.8234 19.761 13.1638C20.8691 13.4237 22.0222 13.4237 23.1303 13.1638C24.5815 12.8234 25.7146 11.6902 26.0551 10.239C26.315 9.13094 26.315 7.97777 26.0551 6.86972C25.7147 5.41849 24.5815 4.28535 23.1303 3.94493Z" fill="#5E6062"/>
<path d="M23.1303 16.8362C22.0222 16.5763 20.8691 16.5763 19.761 16.8362C18.3098 17.1766 17.1766 18.3098 16.8362 19.761C16.5763 20.8691 16.5763 22.0222 16.8362 23.1303C17.1766 24.5815 18.3098 25.7147 19.761 26.0551C20.8691 26.315 22.0222 26.315 23.1303 26.0551C24.5815 25.7147 25.7146 24.5815 26.0551 23.1303C26.315 22.0222 26.315 20.8691 26.0551 19.761C25.7147 18.3098 24.5815 17.1766 23.1303 16.8362Z" fill="#5E6062"/>
</svg>
