<svg width="11" height="19" viewBox="0 0 11 19" fill="none" xmlns="http://www.w3.org/2000/svg">
<path d="M9.92946 8.9573L1.56996 0.992299C1.43048 0.859332 1.24516 0.785156 1.05246 0.785156C0.859753 0.785156 0.674442 0.859332 0.53496 0.992299L0.525959 1.0013C0.458106 1.06576 0.404077 1.14335 0.367156 1.22935C0.330235 1.31535 0.311196 1.40796 0.311196 1.50155C0.311196 1.59514 0.330235 1.68775 0.367156 1.77375C0.404077 1.85975 0.458106 1.93734 0.525959 2.0018L8.39796 9.5018L0.525959 16.9988C0.458106 17.0633 0.404077 17.1408 0.367156 17.2268C0.330236 17.3128 0.311197 17.4055 0.311197 17.499C0.311197 17.5926 0.330236 17.6852 0.367156 17.7712C0.404077 17.8572 0.458106 17.9348 0.525959 17.9993L0.53496 18.0083C0.674442 18.1413 0.859753 18.2154 1.05246 18.2154C1.24517 18.2154 1.43048 18.1413 1.56996 18.0083L9.92946 10.0433C10.003 9.97325 10.0615 9.88901 10.1015 9.79567C10.1415 9.70233 10.1621 9.60184 10.1621 9.5003C10.1621 9.39875 10.1415 9.29827 10.1015 9.20493C10.0615 9.11159 10.003 9.02734 9.92946 8.9573Z" fill="white"/>
</svg>
