<svg width="15" height="16" viewBox="0 0 15 16" fill="none" xmlns="http://www.w3.org/2000/svg">
<rect y="0.5" width="15" height="15" rx="7.5" fill="#5E6062"/>
<g clip-path="url(#clip0_270_4138)">
<path d="M11.7273 6.21993C11.4972 5.67086 11.1625 5.17179 10.7419 4.75055C10.3225 4.32857 9.82429 3.99307 9.27558 3.7631C8.71347 3.52637 8.10952 3.40502 7.4996 3.40626H7.47909C6.85873 3.40934 6.25888 3.53238 5.69389 3.77437C5.14989 4.0067 4.65637 4.3428 4.24091 4.76388C3.82433 5.18418 3.49348 5.6815 3.26679 6.22813C3.03148 6.79657 2.91224 7.40634 2.91611 8.02154C2.91918 8.73316 3.0894 9.43966 3.40727 10.0713V11.6299C3.40727 11.8903 3.6185 12.1016 3.87792 12.1016H5.43447C6.06905 12.4218 6.76933 12.5903 7.48012 12.5938H7.50165C8.11484 12.5938 8.70854 12.4748 9.2684 12.2421C9.81433 12.0148 10.3107 11.6832 10.7296 11.2659C11.152 10.8465 11.4843 10.3564 11.717 9.80982C11.958 9.24381 12.081 8.6419 12.0841 8.02052C12.0862 7.39605 11.9652 6.79005 11.7273 6.21993ZM5.45292 8.4922C5.18222 8.4922 4.96176 8.27174 4.96176 8.00001C4.96176 7.72828 5.18222 7.50782 5.45292 7.50782C5.72363 7.50782 5.94408 7.72828 5.94408 8.00001C5.94408 8.27174 5.72465 8.4922 5.45292 8.4922ZM7.4996 8.4922C7.2289 8.4922 7.00844 8.27174 7.00844 8.00001C7.00844 7.72828 7.2289 7.50782 7.4996 7.50782C7.77031 7.50782 7.99076 7.72828 7.99076 8.00001C7.99076 8.27174 7.77031 8.4922 7.4996 8.4922ZM9.54628 8.4922C9.27558 8.4922 9.05512 8.27174 9.05512 8.00001C9.05512 7.72828 9.27558 7.50782 9.54628 7.50782C9.81699 7.50782 10.0374 7.72828 10.0374 8.00001C10.0374 8.27174 9.81699 8.4922 9.54628 8.4922Z" fill="white"/>
</g>
<defs>
<clipPath id="clip0_270_4138">
<rect width="10.5" height="10.5" fill="white" transform="translate(2.25 2.75)"/>
</clipPath>
</defs>
</svg>
