<svg width="34" height="34" viewBox="0 0 34 34" fill="none" xmlns="http://www.w3.org/2000/svg">
<path d="M18.713 0.334082C19.9292 0.329415 21.1454 0.341638 22.3613 0.370749L22.6847 0.382415C23.058 0.395749 23.4263 0.412415 23.8713 0.432415C25.6447 0.515749 26.8547 0.795749 27.9163 1.20742C29.0163 1.63075 29.943 2.20408 30.8697 3.13075C31.717 3.96343 32.3727 4.97066 32.7913 6.08242C33.203 7.14408 33.483 8.35575 33.5663 10.1291C33.5863 10.5724 33.603 10.9424 33.6163 11.3157L33.6263 11.6391C33.6559 12.8544 33.6687 14.0701 33.6647 15.2858L33.6663 16.5291V18.7124C33.6704 19.9286 33.6577 21.1449 33.628 22.3608L33.618 22.6841C33.6047 23.0574 33.588 23.4257 33.568 23.8707C33.4847 25.6441 33.2013 26.8541 32.7913 27.9157C32.3741 29.0287 31.7182 30.0367 30.8697 30.8691C30.0363 31.7163 29.0285 32.372 27.9163 32.7908C26.8547 33.2024 25.6447 33.4824 23.8713 33.5658C23.4263 33.5858 23.058 33.6024 22.6847 33.6157L22.3613 33.6258C21.1455 33.6554 19.9292 33.6682 18.713 33.6641L17.4697 33.6658H15.288C14.0718 33.6699 12.8555 33.6571 11.6397 33.6274L11.3163 33.6174C10.9207 33.6031 10.5251 33.5864 10.1297 33.5674C8.35633 33.4841 7.14633 33.2008 6.08299 32.7908C4.9708 32.373 3.96339 31.7171 3.13133 30.8691C2.28307 30.0362 1.6267 29.0284 1.20799 27.9157C0.796326 26.8541 0.516326 25.6441 0.432993 23.8707C0.414431 23.4753 0.397764 23.0797 0.382993 22.6841L0.37466 22.3608C0.343932 21.1449 0.330042 19.9287 0.332993 18.7124V15.2858C0.328341 14.0701 0.340565 12.8544 0.36966 11.6391L0.381326 11.3157C0.39466 10.9424 0.411326 10.5724 0.431326 10.1291C0.51466 8.35408 0.794659 7.14575 1.20633 6.08242C1.62528 4.97012 2.28293 3.96316 3.13299 3.13242C3.96448 2.28367 4.97126 1.6267 6.08299 1.20742C7.14633 0.795749 8.35466 0.515749 10.1297 0.432415L11.3163 0.382415L11.6397 0.374082C12.855 0.34337 14.0706 0.32948 15.2863 0.332415L18.713 0.334082ZM16.9997 8.66742C15.8955 8.6518 14.7993 8.85579 13.7746 9.26753C12.75 9.67927 11.8174 10.2905 11.0311 11.0658C10.2447 11.8411 9.62033 12.765 9.19414 13.7837C8.76795 14.8024 8.54848 15.8956 8.54848 16.9999C8.54848 18.1042 8.76795 19.1974 9.19414 20.2161C9.62033 21.2349 10.2447 22.1587 11.0311 22.934C11.8174 23.7093 12.75 24.3206 13.7746 24.7323C14.7993 25.144 15.8955 25.348 16.9997 25.3324C19.2098 25.3324 21.3294 24.4544 22.8922 22.8916C24.455 21.3288 25.333 19.2092 25.333 16.9991C25.333 14.7889 24.455 12.6693 22.8922 11.1065C21.3294 9.54372 19.2098 8.66742 16.9997 8.66742ZM16.9997 12.0007C17.6638 11.9885 18.3238 12.1087 18.941 12.3544C19.5582 12.6001 20.1202 12.9663 20.5943 13.4317C21.0684 13.897 21.445 14.4521 21.7021 15.0647C21.9592 15.6772 22.0917 16.3348 22.0918 16.9991C22.0919 17.6634 21.9596 18.321 21.7027 18.9336C21.4458 19.5462 21.0694 20.1015 20.5955 20.567C20.1216 21.0325 19.5596 21.3989 18.9425 21.6448C18.3254 21.8906 17.6655 22.0111 17.0013 21.9991C15.6752 21.9991 14.4035 21.4723 13.4658 20.5346C12.5281 19.5969 12.0013 18.3252 12.0013 16.9991C12.0013 15.673 12.5281 14.4012 13.4658 13.4635C14.4035 12.5259 15.6752 11.9991 17.0013 11.9991L16.9997 12.0007ZM25.7497 6.16742C25.212 6.18894 24.7035 6.41767 24.3307 6.8057C23.9579 7.19374 23.7496 7.71097 23.7496 8.24908C23.7496 8.78719 23.9579 9.30443 24.3307 9.69246C24.7035 10.0805 25.212 10.3092 25.7497 10.3307C26.3022 10.3307 26.8321 10.1113 27.2228 9.72055C27.6135 9.32985 27.833 8.79995 27.833 8.24742C27.833 7.69488 27.6135 7.16498 27.2228 6.77428C26.8321 6.38358 26.3022 6.16408 25.7497 6.16408V6.16742Z" fill="white"/>
</svg>
