<svg width="22" height="30" viewBox="0 0 22 30" fill="none" xmlns="http://www.w3.org/2000/svg">
<path d="M21.0614 14.7031L7.93639 28.7656C7.7973 28.9141 7.61371 29.0132 7.41331 29.0482C7.21292 29.0831 7.0066 29.0519 6.82549 28.9593C6.64437 28.8667 6.49829 28.7177 6.40929 28.5348C6.32029 28.3519 6.29319 28.145 6.33209 27.9453L8.05006 19.3519L1.29655 16.816C1.15151 16.7618 1.02216 16.6724 0.920074 16.556C0.817985 16.4395 0.746329 16.2996 0.711508 16.1487C0.676687 15.9978 0.679786 15.8407 0.720528 15.6913C0.76127 15.5419 0.838385 15.4049 0.944985 15.2926L14.07 1.23007C14.2091 1.08163 14.3927 0.982466 14.5931 0.947527C14.7935 0.912588 14.9998 0.943776 15.1809 1.03638C15.362 1.12899 15.5081 1.27799 15.5971 1.46091C15.6861 1.64382 15.7132 1.85072 15.6743 2.05038L13.9516 10.6531L20.7051 13.1855C20.8491 13.2402 20.9774 13.3294 21.0787 13.4454C21.18 13.5614 21.2512 13.7005 21.2859 13.8505C21.3207 14.0005 21.3179 14.1568 21.278 14.3055C21.238 14.4542 21.162 14.5908 21.0567 14.7031H21.0614Z" fill="#5E6062"/>
</svg>
