<svg width="30" height="30" viewBox="0 0 30 30" fill="none" xmlns="http://www.w3.org/2000/svg">
<path d="M26.7625 14.2625L15.725 3.225C15.2625 2.7625 14.625 2.5 13.9625 2.5H5C3.625 2.5 2.5 3.625 2.5 5V13.9625C2.5 14.625 2.7625 15.2625 3.2375 15.725L14.275 26.7625C15.25 27.7375 16.8375 27.7375 17.8125 26.7625L26.775 17.8C27.75 16.825 27.75 15.25 26.7625 14.2625ZM8.125 10C7.0875 10 6.25 9.1625 6.25 8.125C6.25 7.0875 7.0875 6.25 8.125 6.25C9.1625 6.25 10 7.0875 10 8.125C10 9.1625 9.1625 10 8.125 10Z" fill="#5E6062"/>
</svg>
