<svg width="20" height="20" viewBox="0 0 20 20" fill="none" xmlns="http://www.w3.org/2000/svg">
<path d="M12.25 19.4C11.8667 19.7833 11.3917 19.975 10.825 19.975C10.2583 19.975 9.78334 19.7833 9.40001 19.4L0.600006 10.6C0.416673 10.4167 0.270673 10.2 0.162006 9.95C0.0533394 9.7 -0.000660569 9.43333 6.09757e-06 9.15V2C6.09757e-06 1.45 0.196006 0.979333 0.588006 0.588C0.980006 0.196667 1.45067 0.000666667 2.00001 0H9.15001C9.43334 0 9.70001 0.0543334 9.95001 0.163C10.2 0.271667 10.4167 0.417333 10.6 0.6L19.4 9.425C19.7833 9.80833 19.975 10.2793 19.975 10.838C19.975 11.3967 19.7833 11.8673 19.4 12.25L12.25 19.4ZM4.50001 6C4.91667 6 5.27101 5.85433 5.56301 5.563C5.85501 5.27167 6.00067 4.91733 6.00001 4.5C6.00001 4.08333 5.85434 3.72933 5.56301 3.438C5.27167 3.14667 4.91734 3.00067 4.50001 3C4.08334 3 3.72934 3.146 3.43801 3.438C3.14667 3.73 3.00067 4.084 3.00001 4.5C3.00001 4.91667 3.14601 5.271 3.43801 5.563C3.73001 5.855 4.08401 6.00067 4.50001 6Z" fill="#27CB37"/>
</svg>
