<svg width="28" height="28" viewBox="0 0 28 28" fill="none" xmlns="http://www.w3.org/2000/svg">
<path d="M26.0794 8.91409C25.4221 7.34532 24.4658 5.91941 23.2639 4.71585C22.0656 3.51019 20.6422 2.55162 19.0745 1.89456C17.4685 1.21819 15.7429 0.871477 14.0003 0.875027H13.9417C12.1692 0.883816 10.4553 1.23538 8.84108 1.92678C7.28679 2.59058 5.87673 3.55085 4.68971 4.75393C3.49947 5.95479 2.55418 7.37571 1.90651 8.93753C1.23419 10.5616 0.893523 12.3038 0.904557 14.0616C0.913346 16.0948 1.39967 18.1133 2.30788 19.918V24.3711C2.30788 25.1153 2.91139 25.7188 3.6526 25.7188H8.09987C9.91298 26.6337 11.9138 27.1151 13.9446 27.125H14.0061C15.7581 27.125 17.4544 26.7852 19.054 26.1201C20.6138 25.4709 22.0319 24.5235 23.2288 23.3311C24.4358 22.1328 25.385 20.7325 26.0501 19.1709C26.7385 17.5537 27.0901 15.834 27.0989 14.0586C27.1048 12.2744 26.759 10.543 26.0794 8.91409ZM8.1526 15.4063C7.37917 15.4063 6.74928 14.7764 6.74928 14C6.74928 13.2237 7.37917 12.5938 8.1526 12.5938C8.92604 12.5938 9.55592 13.2237 9.55592 14C9.55592 14.7764 8.92897 15.4063 8.1526 15.4063ZM14.0003 15.4063C13.2268 15.4063 12.5969 14.7764 12.5969 14C12.5969 13.2237 13.2268 12.5938 14.0003 12.5938C14.7737 12.5938 15.4036 13.2237 15.4036 14C15.4036 14.7764 14.7737 15.4063 14.0003 15.4063ZM19.8479 15.4063C19.0745 15.4063 18.4446 14.7764 18.4446 14C18.4446 13.2237 19.0745 12.5938 19.8479 12.5938C20.6214 12.5938 21.2512 13.2237 21.2512 14C21.2512 14.7764 20.6214 15.4063 19.8479 15.4063Z" fill="#5E6062"/>
</svg>
