<svg width="14" height="16" viewBox="0 0 14 16" fill="none" xmlns="http://www.w3.org/2000/svg">
<path d="M7 15.5008C7.49728 15.5008 7.97419 15.3033 8.32582 14.9516C8.67746 14.6 8.875 14.1231 8.875 13.6258H5.125C5.125 14.1231 5.32254 14.6 5.67417 14.9516C6.02581 15.3033 6.50272 15.5008 7 15.5008ZM7.93281 1.53113C7.9459 1.40078 7.93152 1.26913 7.89059 1.14467C7.84967 1.02021 7.78312 0.905717 7.69523 0.808562C7.60734 0.711408 7.50006 0.633753 7.38031 0.580606C7.26057 0.527459 7.13101 0.5 7 0.5C6.86899 0.5 6.73943 0.527459 6.61969 0.580606C6.49994 0.633753 6.39266 0.711408 6.30477 0.808562C6.21688 0.905717 6.15033 1.02021 6.10941 1.14467C6.06848 1.26913 6.0541 1.40078 6.06719 1.53113C5.00739 1.74634 4.05459 2.32136 3.37029 3.15876C2.68599 3.99615 2.31228 5.04439 2.3125 6.12582C2.3125 7.1552 1.84375 11.7508 0.4375 12.6883H13.5625C12.1562 11.7508 11.6875 7.1552 11.6875 6.12582C11.6875 3.85707 10.075 1.96332 7.93281 1.53113Z" fill="white"/>
</svg>
