<svg width="30" height="30" viewBox="0 0 30 30" fill="none" xmlns="http://www.w3.org/2000/svg">
<path d="M15 15C16.7405 15 18.4097 14.3086 19.6404 13.0779C20.8711 11.8472 21.5625 10.178 21.5625 8.4375C21.5625 6.69702 20.8711 5.02782 19.6404 3.79711C18.4097 2.5664 16.7405 1.875 15 1.875C13.2595 1.875 11.5903 2.5664 10.3596 3.79711C9.1289 5.02782 8.4375 6.69702 8.4375 8.4375C8.4375 10.178 9.1289 11.8472 10.3596 13.0779C11.5903 14.3086 13.2595 15 15 15ZM7.03125 16.875C6.16101 16.875 5.32641 17.2207 4.71106 17.8361C4.0957 18.4514 3.75 19.286 3.75 20.1562V20.625C3.75 22.8684 5.17781 24.7659 7.20469 26.0559C9.24281 27.3534 12.0019 28.125 15 28.125C17.9981 28.125 20.7563 27.3534 22.7953 26.0559C24.8222 24.7659 26.25 22.8684 26.25 20.625V20.1562C26.25 19.286 25.9043 18.4514 25.2889 17.8361C24.6736 17.2207 23.839 16.875 22.9688 16.875H7.03125Z" fill="white"/>
</svg>
