<svg width="30" height="30" viewBox="0 0 30 30" fill="none" xmlns="http://www.w3.org/2000/svg">
<path d="M26.25 26.2503L20.8213 20.8215M20.8213 20.8215C21.7499 19.8929 22.4865 18.7905 22.989 17.5772C23.4916 16.3639 23.7503 15.0635 23.7503 13.7503C23.7503 12.437 23.4916 11.1366 22.989 9.92332C22.4865 8.71004 21.7499 7.60762 20.8213 6.67901C19.8927 5.7504 18.7902 5.01378 17.5769 4.51122C16.3637 4.00866 15.0633 3.75 13.75 3.75C12.4368 3.75 11.1364 4.00866 9.92308 4.51122C8.70979 5.01378 7.60737 5.7504 6.67876 6.67901C4.80335 8.55442 3.74976 11.098 3.74976 13.7503C3.74976 16.4025 4.80335 18.9461 6.67876 20.8215C8.55418 22.6969 11.0978 23.7505 13.75 23.7505C16.4022 23.7505 18.9459 22.6969 20.8213 20.8215Z" stroke="white" stroke-linecap="round" stroke-linejoin="round"/>
</svg>
