<svg width="35" height="36" viewBox="0 0 35 36" fill="none" xmlns="http://www.w3.org/2000/svg">
<path d="M17.5 0.5C27.175 0.5 35 8.325 35 18C35 27.675 27.175 35.5 17.5 35.5C7.825 35.5 0 27.675 0 18C0 8.325 7.825 0.5 17.5 0.5ZM14.3 27.225C22.05 27.225 26.3 20.8 26.3 15.225V14.675C27.125 14.075 27.85 13.325 28.4 12.475C27.65 12.8 26.825 13.025 25.975 13.15C26.85 12.625 27.525 11.8 27.825 10.825C27 11.3 26.1 11.65 25.15 11.85C24.375 11.025 23.275 10.525 22.075 10.525C19.75 10.525 17.85 12.425 17.85 14.75C17.85 15.075 17.875 15.4 17.975 15.7C14.475 15.525 11.35 13.85 9.275 11.3C8.925 11.925 8.7 12.65 8.7 13.425C8.7 14.875 9.45 16.175 10.575 16.925C9.875 16.925 9.225 16.725 8.675 16.4V16.45C8.675 18.5 10.125 20.2 12.05 20.6C11.7 20.7 11.325 20.75 10.95 20.75C10.675 20.75 10.425 20.725 10.15 20.675C10.675 22.35 12.25 23.575 14.075 23.6C12.625 24.725 10.8 25.4 8.825 25.4C8.475 25.4 8.15 25.4 7.825 25.35C9.675 26.55 11.9 27.25 14.275 27.25" fill="white"/>
</svg>
