<svg width="20" height="21" viewBox="0 0 20 21" fill="none" xmlns="http://www.w3.org/2000/svg">
<path fill-rule="evenodd" clip-rule="evenodd" d="M15.25 3H4.75C4.15326 3 3.58097 3.23705 3.15901 3.65901C2.73705 4.08097 2.5 4.65326 2.5 5.25V12.7905L3.943 11.7405C4.39707 11.4106 4.94494 11.2349 5.5062 11.2392C6.06746 11.2435 6.61256 11.4276 7.0615 11.7645L8.4535 12.8085L12.0055 9.7635C12.4938 9.34529 13.1187 9.12084 13.7615 9.13273C14.4043 9.14462 15.0205 9.39202 15.493 9.828L17.5 11.6805V5.25C17.5 4.65326 17.2629 4.08097 16.841 3.65901C16.419 3.23705 15.8467 3 15.25 3ZM19.75 14.247V5.25C19.75 4.05653 19.2759 2.91193 18.432 2.06802C17.5881 1.22411 16.4435 0.75 15.25 0.75H4.75C3.55653 0.75 2.41193 1.22411 1.56802 2.06802C0.724106 2.91193 0.25 4.05653 0.25 5.25V15.75C0.25 16.9435 0.724106 18.0881 1.56802 18.932C2.41193 19.7759 3.55653 20.25 4.75 20.25H15.25C16.4435 20.25 17.5881 19.7759 18.432 18.932C19.2759 18.0881 19.75 16.9435 19.75 15.75V14.247ZM17.5 14.742L13.9675 11.481C13.9 11.4188 13.812 11.3835 13.7202 11.3819C13.6284 11.3802 13.5392 11.4123 13.4695 11.472L9.232 15.105L8.5465 15.693L7.825 15.1515L5.71 13.566C5.64596 13.5183 5.56835 13.4923 5.48849 13.4917C5.40863 13.4912 5.33068 13.5162 5.266 13.563L2.5 15.5715V15.75C2.5 16.3467 2.73705 16.919 3.15901 17.341C3.58097 17.7629 4.15326 18 4.75 18H15.25C15.8467 18 16.419 17.7629 16.841 17.341C17.2629 16.919 17.5 16.3467 17.5 15.75V14.742ZM9.25 7.5C9.25 8.09674 9.01295 8.66903 8.59099 9.09099C8.16903 9.51295 7.59674 9.75 7 9.75C6.40326 9.75 5.83097 9.51295 5.40901 9.09099C4.98705 8.66903 4.75 8.09674 4.75 7.5C4.75 6.90326 4.98705 6.33097 5.40901 5.90901C5.83097 5.48705 6.40326 5.25 7 5.25C7.59674 5.25 8.16903 5.48705 8.59099 5.90901C9.01295 6.33097 9.25 6.90326 9.25 7.5Z" fill="#5E6062"/>
</svg>
