<svg width="30" height="30" viewBox="0 0 30 30" fill="none" xmlns="http://www.w3.org/2000/svg">
<g clip-path="url(#clip0_270_3516)">
<path d="M20.5432 7.44492L19.812 3.41602C19.7337 2.98377 19.5062 2.59272 19.1691 2.31108C18.832 2.02945 18.4067 1.87511 17.9675 1.875H12.0331C11.5938 1.87511 11.1685 2.02945 10.8314 2.31108C10.4943 2.59272 10.2668 2.98377 10.1885 3.41602L9.45729 7.44492C8.26965 8.31438 7.30371 9.45159 6.63786 10.7643C5.972 12.0769 5.625 13.5281 5.625 15C5.625 16.4719 5.972 17.9231 6.63786 19.2357C7.30371 20.5484 8.26965 21.6856 9.45729 22.5551L10.1885 26.584C10.2668 27.0162 10.4943 27.4073 10.8314 27.6889C11.1685 27.9706 11.5938 28.1249 12.0331 28.125H17.9675C18.4067 28.1249 18.832 27.9706 19.1691 27.6889C19.5062 27.4073 19.7337 27.0162 19.812 26.584L20.5432 22.5551C21.7309 21.6856 22.6968 20.5484 23.3627 19.2357C24.0285 17.9231 24.3755 16.4719 24.3755 15C24.3755 13.5281 24.0285 12.0769 23.3627 10.7643C22.6968 9.45159 21.7309 8.31438 20.5432 7.44492ZM12.0331 3.75H17.9675L18.4257 6.27539C16.2244 5.40823 13.7761 5.40823 11.5749 6.27539L12.0331 3.75ZM17.9675 26.25H12.0331L11.5749 23.7246C13.7761 24.5918 16.2244 24.5918 18.4257 23.7246L17.9675 26.25ZM19.6878 15.9375H15.0003C14.7516 15.9375 14.5132 15.8387 14.3373 15.6629C14.1615 15.4871 14.0628 15.2486 14.0628 15V10.3125C14.0628 10.0639 14.1615 9.8254 14.3373 9.64959C14.5132 9.47377 14.7516 9.375 15.0003 9.375C15.2489 9.375 15.4874 9.47377 15.6632 9.64959C15.839 9.8254 15.9378 10.0639 15.9378 10.3125V14.0625H19.6878C19.9364 14.0625 20.1749 14.1613 20.3507 14.3371C20.5265 14.5129 20.6253 14.7514 20.6253 15C20.6253 15.2486 20.5265 15.4871 20.3507 15.6629C20.1749 15.8387 19.9364 15.9375 19.6878 15.9375Z" fill="#5E6062"/>
</g>
<defs>
<clipPath id="clip0_270_3516">
<rect width="30" height="30" fill="white"/>
</clipPath>
</defs>
</svg>
