<svg width="22" height="26" viewBox="0 0 22 26" fill="none" xmlns="http://www.w3.org/2000/svg">
<path d="M7.75 20.5H5.25M5.25 20.5C4.25544 20.5 3.30161 20.1049 2.59835 19.4017C1.89509 18.6984 1.5 17.7446 1.5 16.75V9.25C1.5 8.25544 1.89509 7.30161 2.59835 6.59835C3.30161 5.89509 4.25544 5.5 5.25 5.5M5.25 20.5V24.25H8.375M5.25 5.5H12.75M5.25 5.5V1.75H12.75V5.5M12.75 5.5C13.7446 5.5 14.6984 5.89509 15.4017 6.59835C16.1049 7.30161 16.5 8.25544 16.5 9.25V16.125M12.75 21.75L15.25 24.25L20.25 19.25" stroke="black" stroke-width="2" stroke-linecap="round" stroke-linejoin="round"/>
</svg>
