<svg width="18" height="18" viewBox="0 0 18 18" fill="none" xmlns="http://www.w3.org/2000/svg">
<path d="M0 14.2505V18.0005H3.75L14.81 6.94049L11.06 3.19049L0 14.2505ZM17.71 4.04049C17.8027 3.94798 17.8762 3.83809 17.9264 3.71712C17.9766 3.59614 18.0024 3.46646 18.0024 3.33549C18.0024 3.20452 17.9766 3.07484 17.9264 2.95387C17.8762 2.83289 17.8027 2.723 17.71 2.63049L15.37 0.290491C15.2775 0.197787 15.1676 0.12424 15.0466 0.0740583C14.9257 0.0238768 14.796 -0.00195312 14.665 -0.00195312C14.534 -0.00195312 14.4043 0.0238768 14.2834 0.0740583C14.1624 0.12424 14.0525 0.197787 13.96 0.290491L12.13 2.12049L15.88 5.87049L17.71 4.04049Z" fill="#4F99E3"/>
</svg>
